<svg width="45" height="49" viewBox="0 0 45 49" fill="none" xmlns="http://www.w3.org/2000/svg">
<g id="Group">
<path id="Vector" d="M6.17414 14.6378L6.31358 11.8105L3.78116 10.334L1.01684 11.582L0.900391 14.4856L3.37605 15.888L6.17414 14.6378Z" fill="#8BB8E8"/>
<path id="Vector_2" d="M2.71484 19.9313L6.23851 17.8828L9.91041 19.6924L10.0587 23.55L6.535 25.5985L2.86309 23.789L2.71484 19.9313Z" fill="#8BB8E8"/>
<g id="Group_2">
<path id="Vector_3" d="M44.6812 33.1685C43.7781 34.417 41.5465 33.2726 40.7828 34.7296C40.6101 35.3652 40.7769 35.999 40.8885 36.6355C40.8929 37.3256 40.2089 37.734 39.5944 37.978C39.7872 38.4391 39.9486 38.9412 39.6932 39.4064C39.4554 40.0442 38.6839 40.1615 38.0772 40.3336C37.5596 41.0819 37.6501 42.0033 37.6393 42.8565C37.6897 44.1649 37.2914 45.7628 35.7777 46.2285L35.7899 46.2589C33.825 46.6387 31.8469 46.1053 29.9882 45.537C28.5576 45.0359 27.0076 44.5393 25.4577 44.9155C23.4292 45.3484 22.0118 46.8781 20.7539 48.3111C21.0734 44.6647 21.3924 41.0083 21.7217 37.3519C23.0784 38.2201 24.4464 39.0997 25.8041 39.9884L31.4908 37.4028L31.9242 32.7474L32.026 31.6879L31.5886 31.418L26.2116 28.6276L26.766 18.7425C28.0429 18.185 29.3126 17.619 30.5881 17.0701C32.1576 16.3578 33.7511 15.6958 35.3094 14.9839C35.3686 14.0257 35.4078 13.1307 35.5022 12.1317C35.6216 10.3148 35.716 8.46756 35.9318 6.36133C36.902 6.837 37.8649 7.49577 38.6677 8.19043C40.3415 9.61745 41.753 11.3475 42.5623 13.332C43.0955 14.6849 43.4018 16.117 43.3372 17.5608C43.1684 19.1509 42.781 20.7279 42.0823 22.1931C41.866 22.8196 41.5069 23.4411 41.5764 24.1185C41.7105 24.7541 41.9644 25.3751 42.12 26.0103C42.7403 27.6454 43.4581 29.2459 44.1866 30.847C44.4772 31.5707 45.1211 32.3617 44.6812 33.1685Z" fill="#10294B"/>
<path id="Vector_4" d="M20.7539 13.8776L26.9357 17.5381L33.505 14.4918L33.9689 7.64341L27.7709 3.87891L21.1213 7.01918L20.7539 13.8776Z" fill="#8BB8E8"/>
<path id="Vector_5" d="M12.3247 26.8997L18.9185 30.1194L25.2926 26.5176L25.137 19.546L18.5168 16.2227L12.0703 19.9258L12.3247 26.8997Z" fill="#8BB8E8"/>
<path id="Vector_6" d="M30.1588 36.5396L30.2924 32.851L26.9644 30.9628L23.3811 32.6311L23.2793 36.4192L26.5319 38.2115L30.1588 36.5396Z" fill="#8BB8E8"/>
<path id="Vector_7" d="M17.9673 4.30544L18.1551 1.96387L16.0929 0.683594L13.7684 1.6572L13.5977 4.06238L15.6149 5.28041L17.9673 4.30544Z" fill="#8BB8E8"/>
<path id="Vector_8" d="M3.92773 30.68L4.32159 34.0133L7.87069 35.2954L11.0944 33.2178L10.7065 29.8091L7.20921 28.6328L3.92773 30.68Z" fill="#8BB8E8"/>
<path id="Vector_9" d="M13.9355 34.3365L14.2296 36.8239L16.878 37.7803L19.2837 36.2301L18.9945 33.6864L16.3843 32.8087L13.9355 34.3365Z" fill="#8BB8E8"/>
<path id="Vector_10" d="M8.3418 8.73508L13.3303 6.06049L18.3188 8.73508V14.0838L13.3303 16.7584L8.3418 14.0838V8.73508Z" fill="#8BB8E8"/>
</g>
</g>
</svg>
